<?xml version="1.0" encoding="UTF-8" standalone="no"?><svg xmlns="http://www.w3.org/2000/svg" xmlns:xlink="http://www.w3.org/1999/xlink" fill="#ffeccf" height="185.1" preserveAspectRatio="xMidYMid meet" version="1" viewBox="-0.7 -0.3 199.3 185.1" width="199.3" zoomAndPan="magnify"><g id="change1_1"><path color="#ffeccf" d="m -1127.0117,648.32617 c -3.4116,-0.3429 -6.8961,0.43843 -9.9473,1.89063 -4.0469,1.9262 -7.3754,4.9321 -10.3066,8.09179 -2.9288,3.15718 -5.5178,6.50271 -8.3867,9.47461 -2.8658,2.96859 -6.0703,5.59597 -9.7364,7.08008 -3.6397,1.47319 -7.7394,1.81846 -11.7715,1.4668 -4.038,-0.35218 -8.0476,-1.377 -12.0683,-2.51172 -4.0213,-1.13488 -8.0863,-2.38583 -12.3203,-3.1543 -4.2372,-0.76905 -8.6767,-1.04588 -13.0176,-0.16797 -6.4726,1.30921 -12.3285,5.20573 -16.0723,10.63868 -3.743,5.43174 -5.293,12.26856 -4.3066,18.78515 0.6651,4.39336 2.4161,8.49562 4.5683,12.25 2.1508,3.75178 4.7031,7.18452 7.1563,10.60156 2.4529,3.41679 4.8224,6.84423 6.625,10.51368 1.8006,3.66525 3.0278,7.61217 3.1172,11.58007 0.092,4.11119 -1.0385,8.27794 -2.1074,12.53711 -2.9076,11.58601 -5.0452,23.74263 -3.2344,35.77149 0.9059,6.01755 2.8148,11.94187 5.9609,17.21484 3.1485,5.27684 7.5511,9.87149 12.9395,12.93555 8.0306,4.56673 17.587,5.41621 26.5742,4.46094 6.6029,-0.70189 12.9785,-2.30747 19.332,-3.46094 6.3508,-1.15289 12.7911,-1.8545 18.9844,-0.8457 7.9146,1.28914 15.3413,5.40233 23.543,7.75 4.1039,1.17475 8.4553,1.89239 12.8281,1.45312 4.3868,-0.44058 8.7763,-2.10671 12.0254,-5.26172 2.2074,-2.14344 3.7665,-4.8574 4.6894,-7.73437 0.9216,-2.87308 1.2152,-5.89213 1.0704,-8.84961 -0.2895,-5.90926 -2.2818,-11.47235 -4.375,-16.76367 -2.092,-5.2882 -4.3202,-10.45323 -5.3145,-15.82032 -0.9906,-5.3463 -0.6484,-11.05673 2,-15.56054 2.656,-4.51671 7.4461,-7.58474 12.377,-10.24805 5.7292,-3.09448 11.7303,-5.85032 17.4531,-9.26172 5.7259,-3.41333 11.2218,-7.54315 15.3359,-12.97461 4.1255,-5.44646 6.7558,-12.28651 6.2031,-19.23633 -0.2764,-3.47641 -1.3514,-6.91153 -3.2578,-9.875 -1.9086,-2.9671 -4.6421,-5.42178 -7.8945,-6.8789 -4.6377,-2.07765 -9.8807,-1.97002 -14.6387,-0.83789 -4.7421,1.12837 -9.0866,3.2065 -13.3418,5.13476 -4.253,1.92744 -8.5132,3.7365 -12.9277,4.42383 -4.3929,0.68407 -9.0523,0.1557 -12.6152,-2.17578 -1.867,-1.22181 -3.4374,-2.93279 -4.6387,-4.88086 -1.2032,-1.95079 -2.0518,-4.14538 -2.6289,-6.42383 -1.155,-4.56036 -1.2234,-9.43009 -1.4278,-14.36523 -0.2044,-4.93862 -0.5714,-10.08141 -2.4492,-14.9043 -0.94,-2.41419 -2.26,-4.72119 -4.041,-6.68164 -1.784,-1.96372 -4.0267,-3.55954 -6.5879,-4.44531 -1.1023,-0.38125 -2.2319,-0.62008 -3.3691,-0.73438 z m -0.2735,2.63672 c 0.95,0.0926 1.8822,0.28805 2.7774,0.59766 2.082,0.72002 3.9765,2.04998 5.4961,3.72265 1.5225,1.67594 2.6906,3.70123 3.5332,5.86524 1.6872,4.3335 2.0676,9.17396 2.2695,14.05273 0.2022,4.88245 0.2504,9.94142 1.5078,14.90625 0.6293,2.48415 1.5656,4.93131 2.9414,7.16211 1.3775,2.23373 3.1996,4.23865 5.4434,5.70703 4.2834,2.80292 9.5984,3.33295 14.4707,2.57422 4.8509,-0.75527 9.3255,-2.68379 13.6133,-4.62695 4.2858,-1.94214 8.4813,-3.92848 12.8613,-4.97071 4.3644,-1.03847 9.0257,-1.07626 12.9453,0.67969 2.742,1.22848 5.1031,3.33745 6.7481,5.89453 1.6472,2.56053 2.6034,5.58096 2.8476,8.65235 0.4887,6.14537 -1.8693,12.40436 -5.6758,17.42968 -3.8177,5.04014 -9.0239,8.98557 -14.582,12.29883 -5.561,3.315 -11.5242,6.05852 -17.3535,9.20703 -5.0385,2.72149 -10.3148,5.98585 -13.4024,11.23633 -3.0875,5.25057 -3.3913,11.60058 -2.3203,17.38086 1.0671,5.75951 3.3864,11.07811 5.4571,16.3125 2.0695,5.23127 3.9272,10.52874 4.1914,15.92188 0.1319,2.69391 -0.1407,5.39563 -0.9473,7.91015 -0.8054,2.51062 -2.1619,4.84638 -4.0137,6.64453 -2.7238,2.64499 -6.5479,4.13593 -10.4453,4.52735 -3.9114,0.39293 -7.9376,-0.24684 -11.8379,-1.36328 -7.8071,-2.23473 -15.3231,-6.4305 -23.8437,-7.81836 -6.6697,-1.0864 -13.4107,-0.3214 -19.8828,0.85351 -6.4695,1.17452 -12.782,2.75788 -19.1387,3.4336 -8.6246,0.91673 -17.6209,0.0576 -24.9863,-4.13086 -4.9376,-2.80774 -9.0385,-7.06609 -11.9766,-11.99024 -2.9403,-4.92801 -4.7528,-10.52312 -5.6152,-16.25195 -1.7258,-11.46411 0.3083,-23.27721 3.1836,-34.73438 1.0586,-4.21821 2.2914,-8.61518 2.1875,-13.24218 -0.1007,-4.47089 -1.4675,-8.77462 -3.3887,-12.68555 -1.9192,-3.90675 -4.3819,-7.45041 -6.8516,-10.89062 -2.4695,-3.43976 -4.9625,-6.80183 -7.0097,-10.37305 -2.0458,-3.56861 -3.6496,-7.3794 -4.2481,-11.33203 -0.8834,-5.8358 0.5254,-12.03343 3.8711,-16.88867 3.345,-4.85425 8.6456,-8.37734 14.418,-9.54493 3.8898,-0.78668 7.9945,-0.55476 12.0195,0.17578 4.0284,0.73114 8.0139,1.9537 12.0742,3.09961 4.061,1.14608 8.2311,2.22219 12.5586,2.59961 4.3333,0.37794 8.8484,0.0288 12.9922,-1.64843 4.1709,-1.68849 7.6422,-4.58111 10.6485,-7.69532 3.003,-3.11088 5.6026,-6.47245 8.4238,-9.51367 2.8188,-3.0385 5.9147,-5.79456 9.5019,-7.50195 2.6744,-1.27285 5.6873,-1.92049 8.5371,-1.64258 z" style="-inkscape-stroke:none" transform="translate(1235.236 -648.246)"/></g></svg>