<?xml version="1.0" encoding="UTF-8" standalone="no"?><svg xmlns="http://www.w3.org/2000/svg" xmlns:xlink="http://www.w3.org/1999/xlink" fill="#ffffff" height="191.7" preserveAspectRatio="xMidYMid meet" version="1" viewBox="-1.9 -0.0 188.3 191.7" width="188.3" zoomAndPan="magnify"><g id="change1_1"><path color="#ffffff" d="m -1605.6523,351.47266 c -2.8379,0.0306 -5.6699,0.44746 -8.3965,1.18945 -5.4475,1.48229 -10.4598,4.22811 -14.875,7.63672 -8.8246,6.81251 -15.1756,16.07077 -21.3223,25.04297 -9.8152,14.32736 -19.8136,28.9167 -25.9277,45.40234 -4.7317,12.758 -7.0244,26.97764 -3.3575,40.29102 1.8347,6.66095 5.1643,12.97088 9.9747,18.00195 4.8147,5.03559 11.1134,8.72267 18.0019,10.0625 5.8922,1.14607 11.8365,0.55879 17.5586,0.0176 a 1.3230489,1.3230489 0 0 0 0,0.002 c 7.1483,-0.67609 14.2889,-1.29249 21.1152,-0.0176 9.8097,1.832 18.6264,7.49664 26.5606,13.94922 7.9407,6.4579 15.3209,13.84232 23.9941,19.74609 8.6884,5.91401 19.0404,10.3303 29.7637,9.57032 5.3688,-0.38049 10.7023,-2.09424 15.1211,-5.27344 4.4265,-3.18475 7.8479,-7.8438 9.2031,-13.1875 0.9485,-3.74095 0.8597,-7.66485 0.025,-11.37109 -0.8334,-3.70226 -2.393,-7.18085 -4.3418,-10.36524 -3.895,-6.36477 -9.2576,-11.50956 -14.3242,-16.64453 -5.0637,-5.13204 -9.9683,-10.44247 -12.9355,-16.74219 -1.4822,-3.1468 -2.4624,-6.5241 -2.6602,-9.93554 -0.1976,-3.40639 0.405,-6.86732 1.9121,-9.86133 2.4369,-4.84097 7.1619,-8.36109 12.2656,-10.84375 5.1191,-2.49009 10.7568,-4.12866 16.2032,-6.5625 5.4583,-2.43917 10.8737,-5.84305 14.207,-11.11524 1.6705,-2.64198 2.7589,-5.70754 2.8808,-8.89648 0.1223,-3.19857 -0.7576,-6.46988 -2.7128,-9.08399 -2.4051,-3.21573 -6.1541,-5.08758 -9.9688,-5.7539 -3.7942,-0.66273 -7.6216,-0.20747 -11.2246,0.63086 -7.1964,1.67439 -13.8734,4.80296 -20.6426,4.59375 -6.1636,-0.19055 -12.1181,-3.15223 -16.9277,-7.27539 -4.8226,-4.13413 -8.6566,-9.40495 -12.3125,-14.81641 -3.657,-5.413 -7.2081,-11.04854 -11.7149,-16.02344 -4.5133,-4.98214 -10.0998,-9.31898 -16.7207,-11.24414 -2.7451,-0.79847 -5.5879,-1.15361 -8.4257,-1.12304 z m 0.025,2.64843 c 2.5987,-0.0282 5.1867,0.2956 7.6622,1.01563 5.9773,1.73804 11.2029,5.73727 15.498,10.47851 4.3018,4.7487 7.7946,10.26993 11.4824,15.72852 3.6887,5.45993 7.6448,10.94084 12.7832,15.3457 5.1512,4.41603 11.6183,7.6953 18.5684,7.91016 7.6094,0.23518 14.5094,-3.0765 21.3242,-4.66211 3.4025,-0.79167 6.8787,-1.17448 10.1699,-0.59961 3.2707,0.57128 6.4018,2.18621 8.3047,4.73047 1.5446,2.06509 2.2885,4.75782 2.1875,7.39844 -0.1013,2.65005 -1.0204,5.28717 -2.4726,7.58398 -2.912,4.60581 -7.8394,7.7864 -13.0508,10.11524 -5.2233,2.33415 -10.8912,3.97575 -16.2813,6.59765 -5.4056,2.62954 -10.6528,6.43343 -13.4707,12.03125 -1.7466,3.46978 -2.4109,7.38687 -2.1894,11.20508 0.221,3.81315 1.3048,7.51212 2.9062,10.91211 3.2,6.79387 8.3436,12.30015 13.4453,17.4707 5.0988,5.16762 10.2934,10.18776 13.9532,16.16797 1.8287,2.98821 3.2617,6.20672 4.0175,9.56445 0.755,3.35396 0.8202,6.86699 -0.01,10.14063 -1.1832,4.66549 -4.2281,8.84361 -8.1836,11.68945 -3.9635,2.8516 -8.8321,4.43369 -13.7637,4.78321 -9.8773,0.70002 -19.7037,-3.41021 -28.0879,-9.11719 -8.3991,-5.71721 -15.7306,-13.04059 -23.8125,-19.61328 -8.0884,-6.57801 -17.2524,-12.53866 -27.7441,-14.49805 -7.3007,-1.36349 -14.6905,-0.69274 -21.8496,-0.0156 -5.7252,0.54149 -11.4161,1.06685 -16.8106,0.0176 -6.2897,-1.22336 -12.1307,-4.62712 -16.5937,-9.29492 -4.4676,-4.67252 -7.6056,-10.59276 -9.336,-16.875 -3.463,-12.5732 -1.318,-26.25119 3.2871,-38.66797 5.9637,-16.07972 15.8162,-30.49956 25.6309,-44.82617 6.1443,-8.96879 12.3641,-17.96844 20.7539,-24.44531 4.1919,-3.23619 8.9104,-5.80503 13.9551,-7.17774 2.5194,-0.6856 5.1279,-1.06559 7.7265,-1.09375 z" style="-inkscape-stroke:none" transform="translate(1681.343 -351.47)"/></g></svg>